<?xml version="1.0" encoding="UTF-8" standalone="no"?>
<!-- Created with Inkscape (http://www.inkscape.org/) -->

<svg
   width="208.35698mm"
   height="208.55827mm"
   viewBox="0 0 208.35698 208.55828"
   version="1.1"
   id="svg1"
   xml:space="preserve"
   xmlns="http://www.w3.org/2000/svg"
   xmlns:svg="http://www.w3.org/2000/svg"><defs
     id="defs1" /><g
     id="layer1"
     transform="translate(-1.0250371,-0.94136137)"><g
       id="g1"><path
         style="display:none;opacity:0;fill:#fdfdfd;fill-opacity:0"
         d="M 1.0250371,105.2205 V 0.94136137 H 105.20353 209.38202 V 105.2205 209.49963 H 105.20353 1.0250371 Z M 107.62905,206.87785 c 0.66546,-0.32214 6.302,-5.87605 21.78257,-21.46324 11.48665,-11.56575 21.0174,-21.27326 21.17946,-21.57225 0.42076,-0.77629 0.37914,-2.79511 -0.0755,-3.66394 -0.47975,-0.9167 -5.99303,-6.52217 -7.15265,-7.27224 -0.50234,-0.32492 -1.17248,-0.57889 -1.5275,-0.57889 -0.34789,0 -6.61563,1.13237 -13.92832,2.51639 -7.31269,1.38401 -13.6263,2.51639 -14.03024,2.51639 -2.14865,0 -3.98661,-2.16004 -3.65757,-4.29851 0.0707,-0.45921 1.21866,-6.79576 2.5511,-14.08121 2.17119,-11.87149 2.39786,-13.3236 2.18395,-13.99112 -0.17315,-0.54031 -1.24065,-1.75796 -3.88753,-4.43433 -2.00686,-2.02922 -3.89346,-3.81837 -4.19244,-3.97589 -0.95523,-0.50327 -1.96673,-0.36092 -3.18333,0.44798 -1.80099,1.19744 -3.18883,2.40448 -5.533371,4.81251 -1.77749,1.82563 -2.385993,2.32417 -3.083962,2.52668 -0.809757,0.23494 -1.72323,0.096 -13.286532,-2.021 -6.829346,-1.2503 -13.072134,-2.38826 -13.872863,-2.5288 -2.014184,-0.35353 -3.048036,-0.11212 -4.17715,0.9754 -0.834372,0.80363 -1.308402,1.84416 -1.311089,2.87793 -6.18e-4,0.23753 1.131252,6.45168 2.515265,13.80924 1.384014,7.35755 2.516389,13.67973 2.516389,14.04929 0,1.15508 -0.74198,2.34172 -2.186591,3.49696 -4.461043,3.56748 -6.348367,7.03656 -5.009249,9.20749 0.248555,0.40294 9.873278,10.08095 21.388272,21.50669 16.354055,16.22728 21.156661,20.88286 21.942911,21.27116 1.21028,0.59771 2.62316,0.55126 4.03601,-0.13269 z M 50.776974,150.15608 c 1.192201,-0.82937 6.485343,-6.2275 6.892073,-7.02878 0.179866,-0.35434 0.327029,-0.97579 0.327029,-1.381 0,-0.40521 -1.127235,-6.77679 -2.504967,-14.15907 -2.630197,-14.09335 -2.617863,-13.99017 -1.849544,-15.47269 0.447699,-0.86386 1.721285,-1.68591 2.790665,-1.80127 0.578881,-0.0624 5.325708,0.73932 14.547385,2.45714 11.766479,2.19186 13.787188,2.51968 14.393743,2.33503 0.895234,-0.27251 8.040838,-7.11503 8.54942,-8.18679 0.222614,-0.46912 0.30329,-0.95797 0.225343,-1.36543 -0.239519,-1.25206 -3.293556,-5.12655 -5.906033,-7.492662 -1.83106,-1.658384 -2.262029,-2.323662 -2.263018,-3.493378 -4.14e-4,-0.489351 1.094496,-6.785355 2.433133,-13.991119 2.68265,-14.440466 2.719967,-14.792516 1.70858,-16.118513 -0.696616,-0.913311 -1.515186,-1.42709 -2.532991,-1.589843 -0.555919,-0.0889 -4.634539,0.590801 -14.355849,2.39238 -7.46862,1.384104 -13.838797,2.514564 -14.155949,2.512132 -1.028342,-0.0079 -2.18288,-0.70445 -3.205305,-1.933851 -1.832727,-2.203738 -4.185587,-4.385856 -5.453001,-5.057288 -1.37697,-0.72947 -2.642296,-0.855097 -3.751827,-0.372496 -0.379309,0.164983 -9.422978,9.071752 -21.820266,21.489957 C 4.2458732,102.53302 3.6645959,103.13611 3.3578871,104.19257 c -0.3419578,1.17788 -0.2622773,2.32847 0.2315099,3.34301 0.4650703,0.95553 42.079402,42.54703 43.032602,43.00899 1.207393,0.58516 2.995741,0.41794 4.154975,-0.38849 z m 113.066426,0.17221 c 0.42306,-0.22006 9.87941,-9.53769 21.80992,-21.48996 23.19015,-23.23244 21.89777,-21.79446 21.6598,-24.10014 -0.0615,-0.59558 -0.26457,-1.38749 -0.45133,-1.75979 -0.4576,-0.91219 -41.63003,-42.132598 -42.74687,-42.79668 -1.14985,-0.683714 -2.78769,-0.728786 -3.95347,-0.108796 -1.14551,0.609213 -7.25445,6.810082 -7.64922,7.764318 -0.26338,0.636656 -0.27937,0.974815 -0.0952,2.01311 0.12175,0.686356 1.25727,6.779712 2.52338,13.540792 1.26611,6.76108 2.30202,12.674986 2.30202,13.142014 0,1.190463 -0.41511,2.052388 -1.39057,2.887351 -1.49911,1.283171 0.006,1.442741 -18.43857,-1.954849 -12.61364,-2.323506 -11.73088,-2.186875 -12.54755,-1.942063 -0.55762,0.167157 -1.71475,1.201798 -4.71487,4.215769 l -3.9759,3.994244 v 0.92789 c 0,1.39652 1.47448,3.46595 4.96771,6.9722 2.33219,2.34089 2.92217,3.04862 3.10386,3.72336 0.20125,0.74741 -0.0374,2.25159 -2.31983,14.6238 -1.39929,7.58489 -2.54115,13.99745 -2.53746,14.25012 0.0275,1.88229 2.0208,3.72088 4.0201,3.70801 0.5053,-0.003 6.78751,-1.10079 13.96048,-2.43897 7.17297,-1.33817 13.41772,-2.43304 13.87723,-2.43304 1.42301,0 2.39388,0.64164 3.98404,2.63301 2.33284,2.92144 5.22265,4.98813 7.0018,5.00744 0.47821,0.005 1.1969,-0.16401 1.61049,-0.37914 z M 106.53085,93.516525 c 2.02388,-1.308099 3.9848,-2.995475 5.83027,-5.016968 1.78297,-1.953036 2.49008,-2.403611 3.77211,-2.403611 0.42704,0 6.65501,1.08708 13.83994,2.415733 7.18493,1.328653 13.45512,2.415733 13.93377,2.415733 1.68145,0 3.41419,-1.389415 3.84388,-3.082266 0.24573,-0.968087 0.3935,-0.05081 -2.59618,-16.115082 -1.21291,-6.517222 -2.20329,-12.179096 -2.20086,-12.581942 0.008,-1.313557 0.63489,-2.284956 2.45704,-3.806892 4.11792,-3.43946 5.78476,-6.264725 4.97792,-8.437511 C 150.10321,46.134803 108.26199,4.2648693 107.21664,3.7019877 106.15552,3.1306192 103.921,3.0959119 102.88845,3.6347609 101.81604,4.1944083 60.490356,45.551609 60.004362,46.551551 c -0.482186,0.992105 -0.521462,2.62274 -0.08815,3.659796 0.321959,0.770558 5.590454,6.267384 7.018086,7.322244 0.602609,0.44526 1.00465,0.580116 1.72948,0.580116 0.519398,0 6.779163,-1.096102 13.910589,-2.435783 7.131426,-1.33968 13.373884,-2.442142 13.872129,-2.449915 1.806641,-0.02819 3.531399,1.446086 3.755964,3.210486 0.0632,0.496434 -0.804371,5.624915 -2.445855,14.458465 -1.783238,9.596383 -2.505002,13.89981 -2.414098,14.393742 0.105583,0.573686 0.865342,1.446677 4.089448,4.698921 2.177875,2.196883 4.140955,4.070883 4.362395,4.164444 0.7992,0.33767 1.46914,0.181587 2.7365,-0.637542 z"
         id="path8" /><path
         style="display:inline;fill:#93b7d3"
         d="m 105.26644,207.34901 c 0.14532,-0.0582 0.31895,-0.051 0.38584,0.0159 0.0669,0.0669 -0.052,0.11447 -0.26422,0.10573 -0.23451,-0.01 -0.28222,-0.0574 -0.12162,-0.12162 z m -37.207245,-35.24291 -3.117887,-3.17065 3.17065,3.11789 c 2.945559,2.89654 3.26173,3.22341 3.117886,3.22341 -0.02902,0 -1.455812,-1.42679 -3.170649,-3.17065 z m 80.828835,-6.49228 c 0.20041,-0.22144 0.40967,-0.40262 0.46503,-0.40262 0.0554,0 -0.0633,0.18118 -0.26372,0.40262 -0.2004,0.22144 -0.40966,0.40262 -0.46502,0.40262 -0.0554,0 0.0633,-0.18118 0.26371,-0.40262 z m -86.563766,-7.85113 c 0.200403,-0.22144 0.409663,-0.40262 0.465024,-0.40262 0.05536,0 -0.06331,0.18118 -0.263713,0.40262 -0.200402,0.22144 -0.409663,0.40262 -0.465023,0.40262 -0.05536,0 0.06331,-0.18118 0.263712,-0.40262 z m 51.195926,-0.33883 c 0.14532,-0.0581 0.31895,-0.051 0.38585,0.0159 0.0669,0.0669 -0.052,0.11448 -0.26422,0.10573 -0.23452,-0.01 -0.28222,-0.0574 -0.12163,-0.12162 z m -49.988059,-0.86904 c 0.200402,-0.22144 0.409663,-0.40262 0.465023,-0.40262 0.05536,0 -0.06331,0.18118 -0.263712,0.40262 -0.200402,0.22144 -0.409663,0.40262 -0.465024,0.40262 -0.05536,0 0.06331,-0.18118 0.263713,-0.40262 z m 46.433989,-3.01966 c 0,-0.27681 0.0457,-0.39004 0.10154,-0.25164 0.0558,0.1384 0.0558,0.36487 0,0.50327 -0.0558,0.13841 -0.10154,0.0252 -0.10154,-0.25163 z m 31.42691,-1.14607 c 0.19587,-0.051 0.46764,-0.0477 0.60393,0.007 0.13629,0.0551 -0.024,0.0969 -0.35613,0.0928 -0.33216,-0.004 -0.44367,-0.0492 -0.2478,-0.10027 z m -73.884566,-0.9677 c 0.0022,-0.44288 0.04346,-0.60036 0.09161,-0.34995 0.04815,0.25042 0.04632,0.61278 -0.0041,0.80525 -0.05039,0.19247 -0.08978,-0.0124 -0.08755,-0.4553 z m -20.98712,-1.10235 C 45.572323,149.80725 4.1821288,108.32868 3.7285954,107.43492 3.2201212,106.43289 3.2522961,104.54307 3.7954297,103.50935 4.0543882,103.01649 12.4044,94.529251 25.319604,81.631434 44.171437,62.804982 46.511083,60.535127 47.268718,60.33706 c 0.466416,-0.121935 1.100546,-0.160972 1.409178,-0.08675 1.780999,0.428311 4.275176,2.361698 6.27088,4.860939 1.448499,1.813969 2.395284,2.528681 3.661072,2.76368 0.508862,0.09447 4.650435,-0.599104 14.393743,-2.410476 9.807815,-1.823364 13.90907,-2.509619 14.491117,-2.42477 1.10391,0.160925 1.984697,0.735548 2.635982,1.719706 0.440303,0.665343 0.541756,1.043581 0.528579,1.970642 -0.009,0.630995 -1.111147,6.981882 -2.449285,14.113083 -1.338138,7.131202 -2.432978,13.271583 -2.432978,13.645291 0,1.230008 0.529239,1.99059 3.351955,4.817178 3.052293,3.056477 4.902715,5.548977 4.900474,6.600877 -7.3e-4,0.34241 -0.159605,0.86254 -0.353056,1.15585 -0.663746,1.00636 -7.851533,7.80144 -8.397174,7.93839 -0.340958,0.0856 -5.528056,-0.7915 -14.261784,-2.41148 -7.549264,-1.40029 -13.977966,-2.54401 -14.286005,-2.54162 -1.24376,0.01 -2.702697,0.94162 -3.315904,2.11813 -0.740201,1.42016 -0.74293,1.39771 1.874286,15.4215 1.377732,7.38228 2.504967,13.77692 2.504967,14.21031 0,0.52457 -0.192679,1.08718 -0.576374,1.68298 -0.819765,1.27292 -6.283295,6.57508 -7.147086,6.936 -0.994097,0.41536 -2.685088,0.36892 -3.549961,-0.0975 z m 115.716136,0.26024 c 0.14532,-0.0582 0.31895,-0.051 0.38584,0.0159 0.0669,0.0669 -0.052,0.11447 -0.26422,0.10573 -0.23452,-0.01 -0.28222,-0.0574 -0.12162,-0.12163 z m -4.41678,-2.22788 c -0.25041,-0.31929 -0.24329,-0.32642 0.076,-0.076 0.19377,0.15196 0.3523,0.31049 0.3523,0.35229 0,0.16569 -0.16531,0.0591 -0.4283,-0.27628 z m -33.83233,-0.59047 c 0.14532,-0.0582 0.31895,-0.051 0.38584,0.0159 0.0669,0.0669 -0.052,0.11447 -0.26422,0.10573 -0.23451,-0.01 -0.28221,-0.0574 -0.12162,-0.12162 z m 31.81922,-1.42264 c -0.25041,-0.3193 -0.24329,-0.32642 0.076,-0.076 0.33534,0.26299 0.44198,0.4283 0.27629,0.4283 -0.0418,0 -0.20033,-0.15853 -0.35229,-0.35229 z m -1.90591,-2.31508 -0.38349,-0.45295 0.45295,0.38349 c 0.42566,0.36039 0.54459,0.52241 0.38349,0.52241 -0.0382,0 -0.24202,-0.20383 -0.45295,-0.45295 z m -31.06754,-18.78904 c 0.01,-0.23451 0.0574,-0.28221 0.12163,-0.12162 0.0581,0.14532 0.051,0.31895 -0.0159,0.38584 -0.0669,0.0669 -0.11447,-0.052 -0.10573,-0.26422 z m -25.179779,-2.77693 c 0,-0.0418 0.158532,-0.20033 0.352294,-0.35229 0.319291,-0.2504 0.326411,-0.24328 0.07601,0.076 -0.262986,0.33533 -0.4283,0.44197 -0.4283,0.27628 z m 25.453189,-9.03332 -0.59127,-0.65426 0.65426,0.59127 c 0.60986,0.55115 0.7468,0.71726 0.59127,0.71726 -0.0346,0 -0.32906,-0.29442 -0.65426,-0.65427 z m -2.61068,-2.41573 -1.20157,-1.25819 1.2582,1.20156 c 1.16875,1.11615 1.35031,1.31483 1.20156,1.31483 -0.0311,0 -0.59733,-0.56619 -1.25819,-1.2582 z m 86.68662,-5.90512 c 0.01,-0.23452 0.0574,-0.28222 0.12162,-0.12163 0.0582,0.14532 0.051,0.31895 -0.0159,0.38585 -0.0669,0.0669 -0.11447,-0.052 -0.10573,-0.26422 z m -54.11825,-4.6515 c 0.19376,-0.0506 0.51083,-0.0506 0.70459,0 0.19376,0.0506 0.0352,0.0921 -0.3523,0.0921 -0.38752,0 -0.54605,-0.0414 -0.35229,-0.0921 z M 95.254521,84.770648 c 0.0097,-0.234516 0.05736,-0.282218 0.121625,-0.121625 0.05815,0.145321 0.051,0.318952 -0.01589,0.385846 -0.06689,0.06689 -0.114473,-0.05201 -0.105732,-0.264221 z M 156.03458,63.851072 c 1.71349,-1.716177 3.16074,-3.120321 3.2161,-3.120321 0.0554,0 -1.30129,1.404144 -3.01479,3.120321 -1.7135,1.716177 -3.16075,3.120322 -3.21611,3.120322 -0.0554,0 1.3013,-1.404145 3.0148,-3.120322 z M 99.03786,54.137813 c -0.250405,-0.319291 -0.243284,-0.326411 0.07601,-0.07601 0.193762,0.151958 0.352295,0.310491 0.352295,0.352294 0,0.165686 -0.165314,0.05904 -0.428301,-0.276288 z m 51.3759,-6.005781 c 0.01,-0.234515 0.0574,-0.282217 0.12163,-0.121625 0.0581,0.145321 0.051,0.318952 -0.0159,0.385846 -0.0669,0.06689 -0.11447,-0.05201 -0.10573,-0.264221 z M 125.43485,21.72673 108.22319,4.4643052 125.48562,21.675961 c 9.49433,9.46641 17.26243,17.234501 17.26243,17.262424 0,0.02792 -0.0229,0.05077 -0.0508,0.05077 -0.0279,0 -7.79602,-7.768091 -17.26243,-17.262424 z"
         id="path6" /><path
         style="fill:#6b9fc6"
         d="m 96.042674,199.88703 -6.340101,-6.39163 6.391627,6.3401 c 5.94007,5.89219 6.48223,6.44316 6.3401,6.44316 -0.0283,0 -2.904571,-2.87623 -6.391626,-6.39163 z M 137.4133,177.08855 c 6.08891,-6.08966 11.11603,-11.07211 11.17139,-11.07211 0.0554,0 -4.88117,4.98245 -10.97008,11.07211 -6.0889,6.08966 -11.11603,11.07211 -11.17139,11.07211 -0.0554,0 4.88118,-4.98245 10.97008,-11.07211 z m -74.689847,-10.31719 -2.210989,-2.26475 2.26475,2.21099 c 2.103589,2.05365 2.356163,2.31851 2.210989,2.31851 -0.02957,0 -1.048706,-1.01914 -2.26475,-2.26475 z m -2.883791,-4.17721 c 0,-0.2768 0.04569,-0.39004 0.101538,-0.25163 0.05585,0.1384 0.05585,0.36487 0,0.50327 -0.05585,0.1384 -0.101538,0.0252 -0.101538,-0.25164 z m 86.028708,-7.04588 c -1.32519,-1.32866 -2.36415,-2.41574 -2.30879,-2.41574 0.0554,0 1.18491,1.08708 2.5101,2.41574 1.32519,1.32865 2.36414,2.41573 2.30878,2.41573 -0.0554,0 -1.1849,-1.08708 -2.51009,-2.41573 z m -26.91278,1.07034 c 0.14532,-0.0581 0.31895,-0.051 0.38585,0.0159 0.0669,0.0669 -0.052,0.11447 -0.26422,0.10573 -0.23452,-0.01 -0.28222,-0.0574 -0.12163,-0.12163 z m -51.482,-6.22055 c 0.0097,-0.23452 0.05736,-0.28222 0.121626,-0.12163 0.05815,0.14532 0.051,0.31896 -0.01589,0.38585 -0.06689,0.0669 -0.114474,-0.052 -0.105733,-0.26422 z M 180.8965,133.20274 c 9.18935,-9.18985 16.7532,-16.70882 16.80856,-16.70882 0.0554,0 -7.4179,7.51897 -16.60725,16.70882 -9.18935,9.18985 -16.75321,16.70882 -16.80857,16.70882 -0.0554,0 7.41791,-7.51897 16.60726,-16.70882 z m -24.06752,14.1421 -0.69375,-0.75492 0.75492,0.69376 c 0.70266,0.64572 0.84748,0.81608 0.69375,0.81608 -0.0336,0 -0.37335,-0.33972 -0.75492,-0.75492 z m -33.65844,0.42028 c 0.1384,-0.0558 0.36488,-0.0558 0.50328,0 0.1384,0.0558 0.0252,0.10154 -0.25164,0.10154 -0.2768,0 -0.39004,-0.0457 -0.25164,-0.10154 z m -56.300883,-0.58804 c 0.0097,-0.23451 0.05736,-0.28222 0.121625,-0.12162 0.05815,0.14532 0.051,0.31895 -0.01589,0.38584 -0.06689,0.0669 -0.114473,-0.052 -0.105732,-0.26422 z m 53.718933,-0.63748 -0.48804,-0.55361 0.5536,0.48804 c 0.30449,0.26842 0.55361,0.51755 0.55361,0.55361 0,0.15788 -0.16302,0.0294 -0.61917,-0.48804 z m 34.61506,-1.00656 c -0.2504,-0.31929 -0.24328,-0.32641 0.076,-0.076 0.19376,0.15196 0.3523,0.3105 0.3523,0.3523 0,0.16568 -0.16532,0.059 -0.42831,-0.27629 z m -35.57459,-0.85557 c 0,-0.2768 0.0457,-0.39004 0.10153,-0.25164 0.0558,0.1384 0.0558,0.36488 0,0.50328 -0.0558,0.1384 -0.10153,0.0252 -0.10153,-0.25164 z M 66.265724,143.9561 c 0.0097,-0.23451 0.05736,-0.28221 0.121625,-0.12162 0.05815,0.14532 0.051,0.31895 -0.01589,0.38584 -0.06689,0.0669 -0.114474,-0.052 -0.105732,-0.26422 z m 53.363336,-0.68781 c 0,-0.2768 0.0457,-0.39004 0.10153,-0.25164 0.0558,0.1384 0.0558,0.36488 0,0.50328 -0.0558,0.1384 -0.10153,0.0252 -0.10153,-0.25164 z m 30.12713,-0.33883 c 0.14532,-0.0582 0.31895,-0.051 0.38584,0.0159 0.0669,0.0669 -0.052,0.11448 -0.26422,0.10574 -0.23451,-0.01 -0.28221,-0.0574 -0.12162,-0.12163 z m -29.92582,-0.86904 c 0,-0.2768 0.0457,-0.39004 0.10154,-0.25163 0.0558,0.1384 0.0558,0.36487 0,0.50327 -0.0559,0.1384 -0.10154,0.0252 -0.10154,-0.25164 z m 0.18541,-1.12398 c 0.01,-0.23452 0.0574,-0.28222 0.12163,-0.12163 0.0581,0.14532 0.051,0.31895 -0.0159,0.38585 -0.0669,0.0669 -0.11448,-0.052 -0.10574,-0.26422 z m -54.35399,-0.20131 c 0.0097,-0.23452 0.05736,-0.28222 0.121626,-0.12163 0.05815,0.14532 0.051,0.31895 -0.01589,0.38585 -0.06689,0.0669 -0.114474,-0.052 -0.105733,-0.26422 z m 54.55531,-0.80525 c 0.01,-0.23451 0.0574,-0.28222 0.12162,-0.12162 0.0582,0.14532 0.051,0.31895 -0.0159,0.38584 -0.0669,0.0669 -0.11448,-0.052 -0.10573,-0.26422 z m 0.2172,-1.09043 c 0,-0.27681 0.0457,-0.39004 0.10154,-0.25164 0.0558,0.1384 0.0558,0.36487 0,0.50328 -0.0558,0.1384 -0.10154,0.0252 -0.10154,-0.25164 z m 0.18542,-1.12399 c 0.01,-0.23452 0.0574,-0.28222 0.12162,-0.12162 0.0582,0.14532 0.051,0.31895 -0.0159,0.38584 -0.0669,0.0669 -0.11447,-0.052 -0.10573,-0.26422 z m -55.561863,-0.20131 c 0.0097,-0.23452 0.05736,-0.28222 0.121625,-0.12163 0.05815,0.14533 0.051,0.31896 -0.01589,0.38585 -0.06689,0.0669 -0.114473,-0.052 -0.105732,-0.26422 z m 55.779063,-0.88912 c 0,-0.27681 0.0457,-0.39004 0.10154,-0.25164 0.0558,0.1384 0.0558,0.36487 0,0.50327 -0.0559,0.13841 -0.10154,0.0252 -0.10154,-0.25163 z m 0.18542,-1.12399 c 0.01,-0.23452 0.0574,-0.28222 0.12163,-0.12163 0.0581,0.14532 0.051,0.31896 -0.0159,0.38585 -0.0669,0.0669 -0.11447,-0.052 -0.10573,-0.26422 z m 0.20131,-1.00656 c 0.01,-0.23451 0.0574,-0.28221 0.12163,-0.12162 0.0581,0.14532 0.051,0.31895 -0.0159,0.38584 -0.0669,0.0669 -0.11447,-0.052 -0.10573,-0.26422 z m -56.769726,-0.20131 c 0.0097,-0.23451 0.05736,-0.28222 0.121625,-0.12162 0.05815,0.14532 0.051,0.31895 -0.01589,0.38584 -0.06689,0.0669 -0.114473,-0.052 -0.105732,-0.26422 z m 56.986936,-0.88912 c 0,-0.2768 0.0457,-0.39004 0.10153,-0.25164 0.0559,0.1384 0.0559,0.36488 0,0.50328 -0.0558,0.1384 -0.10153,0.0252 -0.10153,-0.25164 z m 0.18541,-1.12399 c 0.01,-0.23451 0.0574,-0.28222 0.12163,-0.12162 0.0581,0.14532 0.051,0.31895 -0.0159,0.38584 -0.0669,0.0669 -0.11448,-0.052 -0.10574,-0.26422 z m 0.21721,-1.09043 c 0,-0.27681 0.0457,-0.39004 0.10154,-0.25164 0.0558,0.1384 0.0558,0.36487 0,0.50328 -0.0559,0.1384 -0.10154,0.0252 -0.10154,-0.25164 z M 63.84999,131.0722 c 0.0097,-0.23452 0.05736,-0.28222 0.121626,-0.12163 0.05815,0.14532 0.051,0.31895 -0.01589,0.38585 -0.06689,0.0669 -0.114474,-0.052 -0.105733,-0.26422 z m -0.201311,-1.00656 c 0.0097,-0.23452 0.05736,-0.28222 0.121626,-0.12163 0.05815,0.14533 0.051,0.31896 -0.01589,0.38585 -0.06689,0.0669 -0.114474,-0.052 -0.105733,-0.26422 z m 58.380221,0 c 0.01,-0.23452 0.0574,-0.28222 0.12162,-0.12163 0.0581,0.14533 0.051,0.31896 -0.0159,0.38585 -0.0669,0.0669 -0.11448,-0.052 -0.10573,-0.26422 z m 0.20131,-1.00656 c 0.01,-0.23451 0.0574,-0.28221 0.12162,-0.12162 0.0582,0.14532 0.051,0.31895 -0.0159,0.38585 -0.0669,0.0669 -0.11447,-0.052 -0.10573,-0.26423 z m 0.2172,-1.09043 c 0,-0.2768 0.0457,-0.39004 0.10154,-0.25164 0.0558,0.1384 0.0558,0.36488 0,0.50328 -0.0559,0.1384 -0.10154,0.0252 -0.10154,-0.25164 z m -59.201353,-0.11743 c 0.0097,-0.23452 0.05736,-0.28222 0.121626,-0.12163 0.05815,0.14532 0.051,0.31895 -0.01589,0.38585 -0.06689,0.0669 -0.114474,-0.052 -0.105733,-0.26422 z m -0.201311,-1.00656 c 0.0097,-0.23451 0.05736,-0.28222 0.121626,-0.12162 0.05815,0.14532 0.051,0.31895 -0.01589,0.38584 -0.06689,0.0669 -0.114474,-0.052 -0.105733,-0.26422 z m 59.588084,0 c 0.01,-0.23451 0.0574,-0.28222 0.12162,-0.12162 0.0582,0.14532 0.051,0.31895 -0.0159,0.38584 -0.0669,0.0669 -0.11447,-0.052 -0.10573,-0.26422 z m 0.20131,-1.00655 c 0.01,-0.23452 0.0574,-0.28222 0.12163,-0.12163 0.0581,0.14532 0.051,0.31895 -0.0159,0.38585 -0.0669,0.0669 -0.11447,-0.052 -0.10573,-0.26422 z m -60.192016,-1.20787 c 0.0097,-0.23452 0.05736,-0.28222 0.121625,-0.12162 0.05815,0.14532 0.051,0.31895 -0.01589,0.38584 -0.06689,0.0669 -0.114473,-0.052 -0.105732,-0.26422 z m 60.393326,0 c 0.01,-0.23452 0.0574,-0.28222 0.12163,-0.12162 0.0582,0.14532 0.051,0.31895 -0.0159,0.38584 -0.0669,0.0669 -0.11447,-0.052 -0.10573,-0.26422 z m -29.65895,-0.0159 c 0.138402,-0.0559 0.364876,-0.0559 0.503278,0 0.138401,0.0558 0.02516,0.10154 -0.251639,0.10154 -0.276803,0 -0.39004,-0.0457 -0.251639,-0.10154 z m 17.26044,-4.14454 -3.82292,-3.87524 3.87523,3.82293 c 3.60055,3.55193 3.96616,3.92755 3.82293,3.92755 -0.0288,0 -1.77263,-1.74386 -3.87524,-3.87524 z m -13.787824,2.96934 c 0.260043,-0.2768 0.5181,-0.50328 0.573461,-0.50328 0.05536,0 -0.112107,0.22648 -0.372149,0.50328 -0.260043,0.2768 -0.5181,0.50328 -0.573461,0.50328 -0.05536,0 0.112107,-0.22648 0.372149,-0.50328 z m 26.387644,0.18454 c 0.01,-0.23452 0.0574,-0.28222 0.12163,-0.12163 0.0581,0.14532 0.051,0.31895 -0.0159,0.38585 -0.0669,0.0669 -0.11447,-0.052 -0.10573,-0.26422 z m 0.21721,-1.09044 c 0,-0.2768 0.0457,-0.39004 0.10153,-0.25164 0.0559,0.1384 0.0559,0.36488 0,0.50328 -0.0558,0.1384 -0.10153,0.0252 -0.10153,-0.25164 z m -24.088465,-1.8118 c 0.657395,-0.66433 1.240555,-1.20787 1.295915,-1.20787 0.0554,0 -0.43721,0.54354 -1.094604,1.20787 -0.657395,0.66433 -1.240558,1.20787 -1.295918,1.20787 -0.05536,0 0.437212,-0.54354 1.094607,-1.20787 z m 24.273875,0.68781 c 0.01,-0.23451 0.0574,-0.28221 0.12163,-0.12162 0.0581,0.14532 0.051,0.31895 -0.0159,0.38584 -0.0669,0.0669 -0.11448,-0.052 -0.10574,-0.26422 z m 0.21721,-1.09043 c 0,-0.2768 0.0457,-0.39004 0.10154,-0.25164 0.0558,0.1384 0.0558,0.36488 0,0.50328 -0.0558,0.1384 -0.10154,0.0252 -0.10154,-0.25164 z m -57.858398,-0.5447 c 0.249122,-0.048 0.656777,-0.048 0.9059,0 0.249122,0.048 0.04529,0.0872 -0.45295,0.0872 -0.498245,0 -0.702073,-0.0393 -0.45295,-0.0872 z m 58.043818,-0.57929 c 0.01,-0.23451 0.0574,-0.28222 0.12162,-0.12162 0.0582,0.14532 0.051,0.31895 -0.0159,0.38584 -0.0669,0.0669 -0.11447,-0.052 -0.10573,-0.26422 z m 0.20131,-1.00655 c 0.01,-0.23452 0.0574,-0.28222 0.12162,-0.12163 0.0582,0.14532 0.051,0.31895 -0.0159,0.38585 -0.0669,0.0669 -0.11447,-0.052 -0.10573,-0.26422 z m 0.2478,-1.79503 c 0.001,-0.66432 0.0387,-0.91182 0.0835,-0.55 0.0448,0.36183 0.0439,0.90537 -0.002,1.20787 -0.0459,0.3025 -0.0826,0.006 -0.0815,-0.65787 z m -19.03595,-0.0327 c 0.1384,-0.0558 0.36487,-0.0558 0.50327,0 0.1384,0.0558 0.0252,0.10154 -0.25164,0.10154 -0.2768,0 -0.39004,-0.0457 -0.25163,-0.10154 z m 18.68454,-1.61946 c -0.10925,-0.28691 -0.0861,-0.31003 0.1127,-0.11269 0.13757,0.13655 0.19943,0.29899 0.13745,0.36097 -0.062,0.062 -0.17455,-0.0497 -0.25015,-0.24828 z m -1.95107,-2.22311 c -0.25041,-0.31929 -0.24329,-0.32641 0.076,-0.076 0.19376,0.15196 0.3523,0.31049 0.3523,0.35229 0,0.16569 -0.16532,0.059 -0.4283,-0.27629 z m -3.01967,-3.01966 c -0.25041,-0.31929 -0.24329,-0.32641 0.076,-0.076 0.19376,0.15196 0.35229,0.31049 0.35229,0.3523 0,0.16568 -0.16531,0.059 -0.4283,-0.27629 z m -1.00656,-1.20787 c -0.2504,-0.31929 -0.24328,-0.32641 0.076,-0.076 0.19376,0.15195 0.35229,0.31049 0.35229,0.35229 0,0.16569 -0.16531,0.059 -0.4283,-0.27629 z m -1.69374,-2.47945 c -0.073,-0.11809 -0.0895,-0.25788 -0.0367,-0.31065 0.0528,-0.0528 0.14959,0.0439 0.21515,0.2147 0.13612,0.35474 0.0201,0.41713 -0.1784,0.096 z m -0.2619,-0.99316 c 0,-0.27681 0.0457,-0.39004 0.10154,-0.25164 0.0558,0.1384 0.0558,0.36487 0,0.50327 -0.0559,0.13841 -0.10154,0.0252 -0.10154,-0.25163 z m 4.09509,-5.032781 c 2.10151,-2.103701 3.86623,-3.82491 3.92159,-3.82491 0.0554,0 -1.61877,1.721209 -3.72028,3.82491 -2.10152,2.103701 -3.86623,3.824911 -3.92159,3.824911 -0.0554,0 1.61876,-1.72121 3.72028,-3.824911 z M 185.32497,81.415463 164.5903,60.630095 185.37567,81.364769 c 11.43195,11.404071 20.78537,20.757491 20.78537,20.785371 0,0.0279 -0.0228,0.0507 -0.0507,0.0507 -0.0279,0 -9.38129,-9.353414 -20.78537,-20.785367 z m -32.95174,19.037357 c 0.14532,-0.0581 0.31895,-0.051 0.38585,0.0159 0.0669,0.0669 -0.052,0.11447 -0.26422,0.10573 -0.23452,-0.01 -0.28222,-0.0574 -0.12163,-0.12163 z m -1.00655,-0.20131 c 0.14532,-0.0581 0.31895,-0.051 0.38584,0.0159 0.0669,0.0669 -0.052,0.11447 -0.26422,0.10573 -0.23451,-0.01 -0.28222,-0.0574 -0.12162,-0.12163 z m -2.21443,-0.402618 c 0.14533,-0.05815 0.31896,-0.051 0.38585,0.01589 0.0669,0.06689 -0.052,0.114473 -0.26422,0.105732 -0.23452,-0.0097 -0.28222,-0.05736 -0.12163,-0.121625 z m 6.47971,0.07453 c 0,-0.03465 0.29441,-0.329063 0.65426,-0.654261 l 0.65426,-0.591269 -0.59127,0.654261 c -0.55115,0.609863 -0.71725,0.746787 -0.71725,0.591269 z m -8.69413,-0.477148 c 0.14532,-0.05815 0.31895,-0.051 0.38585,0.01589 0.0669,0.06689 -0.052,0.114474 -0.26422,0.105733 -0.23452,-0.0097 -0.28222,-0.05736 -0.12163,-0.121625 z m -1.00655,-0.201312 c 0.14532,-0.05815 0.31895,-0.051 0.38584,0.01589 0.0669,0.06689 -0.052,0.114474 -0.26422,0.105733 -0.23451,-0.0097 -0.28222,-0.05736 -0.12162,-0.121626 z m -2.21443,-0.402622 c 0.14533,-0.05815 0.31896,-0.051 0.38585,0.01589 0.0669,0.06689 -0.052,0.114474 -0.26422,0.105733 -0.23452,-0.0097 -0.28222,-0.05736 -0.12163,-0.121626 z m -2.21442,-0.402622 c 0.14532,-0.05815 0.31896,-0.051 0.38585,0.01589 0.0669,0.06689 -0.052,0.114474 -0.26422,0.105733 -0.23452,-0.0097 -0.28222,-0.05736 -0.12163,-0.121626 z m 15.45099,-0.122802 c 0.0756,-0.198538 0.18816,-0.310265 0.25014,-0.248284 0.062,0.06198 1.3e-4,0.22442 -0.13745,0.360976 -0.19882,0.197339 -0.22194,0.174216 -0.11269,-0.112692 z m -16.45754,-0.07851 c 0.14532,-0.05815 0.31895,-0.051 0.38584,0.01589 0.0669,0.06689 -0.052,0.114474 -0.26422,0.105733 -0.23451,-0.0097 -0.28222,-0.05736 -0.12162,-0.121626 z m -2.21442,-0.402622 c 0.14532,-0.05815 0.31895,-0.051 0.38584,0.01589 0.0669,0.06689 -0.052,0.114473 -0.26422,0.105732 -0.23452,-0.0097 -0.28222,-0.05736 -0.12162,-0.121625 z m -2.21443,-0.402622 c 0.14532,-0.05815 0.31896,-0.051 0.38585,0.01589 0.0669,0.06689 -0.052,0.114473 -0.26422,0.105732 -0.23452,-0.0097 -0.28222,-0.05736 -0.12163,-0.121625 z m -1.00655,-0.201311 c 0.14532,-0.05815 0.31895,-0.051 0.38584,0.01589 0.0669,0.06689 -0.052,0.114473 -0.26422,0.105732 -0.23451,-0.0097 -0.28221,-0.05736 -0.12162,-0.121625 z m -2.21442,-0.402622 c 0.14532,-0.05815 0.31895,-0.051 0.38584,0.01589 0.0669,0.06689 -0.052,0.114473 -0.26422,0.105732 -0.23451,-0.0097 -0.28222,-0.05736 -0.12162,-0.121625 z m 24.62948,-0.265104 c 0,-0.276803 0.0457,-0.39004 0.10154,-0.251639 0.0558,0.138401 0.0558,0.364876 0,0.503278 -0.0558,0.138401 -0.10154,0.02516 -0.10154,-0.251639 z m -26.84391,-0.137519 c 0.14533,-0.05815 0.31896,-0.051 0.38585,0.01589 0.0669,0.06689 -0.052,0.114474 -0.26422,0.105733 -0.23452,-0.0097 -0.28222,-0.05736 -0.12163,-0.121626 z m -1.00655,-0.201311 c 0.14532,-0.05815 0.31895,-0.051 0.38584,0.01589 0.0669,0.06689 -0.052,0.114474 -0.26422,0.105733 -0.23451,-0.0097 -0.28221,-0.05736 -0.12162,-0.121626 z m -2.21442,-0.402622 c 0.14532,-0.05815 0.31895,-0.051 0.38584,0.01589 0.0669,0.06689 -0.052,0.114474 -0.26422,0.105733 -0.23451,-0.0097 -0.28222,-0.05736 -0.12162,-0.121626 z m -1.20787,-0.201311 c 0.14532,-0.05815 0.31895,-0.051 0.38585,0.01589 0.0669,0.06689 -0.052,0.114474 -0.26422,0.105733 -0.23452,-0.0097 -0.28222,-0.05736 -0.12163,-0.121626 z m 31.05555,-0.382535 c 0.01,-0.234516 0.0574,-0.282218 0.12162,-0.121626 0.0582,0.145322 0.051,0.318953 -0.0159,0.385847 -0.0669,0.06689 -0.11447,-0.05201 -0.10573,-0.264221 z m -0.20131,-1.006555 c 0.01,-0.234516 0.0574,-0.282218 0.12162,-0.121626 0.0581,0.145322 0.051,0.318952 -0.0159,0.385846 -0.0669,0.06689 -0.11448,-0.052 -0.10573,-0.26422 z m -57.593027,-4.261085 -3.520786,-3.573271 3.573271,3.520786 c 3.319832,3.271065 3.664252,3.625757 3.520792,3.625757 -0.0289,0 -1.63684,-1.607973 -3.573277,-3.573272 z m 57.391707,3.053218 c 0.01,-0.234516 0.0574,-0.282218 0.12163,-0.121625 0.0582,0.145321 0.051,0.318952 -0.0159,0.385846 -0.0669,0.06689 -0.11448,-0.052 -0.10574,-0.264221 z M 156.6544,92.01785 c 0.01,-0.234516 0.0574,-0.282218 0.12163,-0.121626 0.0582,0.145322 0.051,0.318953 -0.0159,0.385846 -0.0669,0.06689 -0.11448,-0.052 -0.10574,-0.26422 z m -0.20131,-1.006556 c 0.01,-0.234516 0.0574,-0.282218 0.12163,-0.121625 0.0581,0.145321 0.051,0.318952 -0.0159,0.385846 -0.0669,0.06689 -0.11447,-0.05201 -0.10573,-0.264221 z m -12.84947,-0.222648 c 0.19376,-0.05063 0.51082,-0.05063 0.70459,0 0.19376,0.05063 0.0352,0.09206 -0.3523,0.09206 -0.38752,0 -0.54605,-0.04143 -0.35229,-0.09206 z m 12.66405,-0.867787 c 0,-0.276802 0.0457,-0.39004 0.10154,-0.251638 0.0558,0.138401 0.0558,0.364876 0,0.503277 -0.0558,0.138402 -0.10154,0.02516 -0.10154,-0.251639 z m -0.2172,-1.123986 c 0.01,-0.234516 0.0574,-0.282218 0.12163,-0.121626 0.0582,0.145322 0.051,0.318952 -0.0159,0.385846 -0.0669,0.06689 -0.11447,-0.052 -0.10573,-0.26422 z m -43.90171,-0.361197 c 0,-0.0418 0.15853,-0.200336 0.35229,-0.352295 0.31929,-0.250405 0.32641,-0.243284 0.076,0.07601 -0.26299,0.335334 -0.4283,0.441975 -0.4283,0.276289 z m 43.7004,-0.645359 c 0.01,-0.234516 0.0574,-0.282218 0.12162,-0.121625 0.0582,0.145321 0.051,0.318952 -0.0159,0.385846 -0.0669,0.06689 -0.11447,-0.05201 -0.10573,-0.264221 z m -0.18542,-1.090435 c 0,-0.276803 0.0457,-0.39004 0.10154,-0.251639 0.0559,0.138402 0.0559,0.364877 0,0.503278 -0.0558,0.138401 -0.10154,0.02516 -0.10154,-0.251639 z m -0.2172,-1.123987 c 0.01,-0.234516 0.0574,-0.282218 0.12162,-0.121625 0.0582,0.145321 0.051,0.318952 -0.0159,0.385846 -0.0669,0.06689 -0.11447,-0.05201 -0.10573,-0.264221 z m -0.20131,-1.006555 c 0.01,-0.234516 0.0574,-0.282218 0.12162,-0.121625 0.0582,0.145321 0.051,0.318952 -0.0159,0.385846 -0.0669,0.06689 -0.11448,-0.05201 -0.10573,-0.264221 z m -0.18542,-1.090435 c 0,-0.276803 0.0457,-0.39004 0.10154,-0.251639 0.0558,0.138401 0.0558,0.364876 0,0.503278 -0.0558,0.138401 -0.10154,0.02516 -0.10154,-0.251639 z m -0.21721,-1.123987 c 0.01,-0.234516 0.0574,-0.282218 0.12163,-0.121625 0.0582,0.145321 0.051,0.318952 -0.0159,0.385846 -0.0669,0.06689 -0.11448,-0.052 -0.10574,-0.264221 z m -0.20131,-1.006555 c 0.01,-0.234516 0.0574,-0.282218 0.12163,-0.121626 0.0581,0.145322 0.051,0.318953 -0.0159,0.385847 -0.0669,0.06689 -0.11448,-0.05201 -0.10574,-0.264221 z m -0.18542,-1.090435 c 0,-0.276803 0.0457,-0.39004 0.10154,-0.251639 0.0558,0.138401 0.0558,0.364876 0,0.503278 -0.0558,0.138401 -0.10154,0.02516 -0.10154,-0.251639 z m -0.2172,-1.123987 c 0.01,-0.234516 0.0574,-0.282218 0.12163,-0.121626 0.0582,0.145322 0.051,0.318953 -0.0159,0.385847 -0.0669,0.06689 -0.11447,-0.05201 -0.10573,-0.264221 z m -0.20131,-1.006555 c 0.01,-0.234516 0.0574,-0.282218 0.12162,-0.121626 0.0582,0.145322 0.051,0.318952 -0.0159,0.385846 -0.0669,0.06689 -0.11447,-0.05201 -0.10573,-0.26422 z m -0.18542,-1.090435 c 0,-0.276803 0.0457,-0.390041 0.10154,-0.251639 0.0558,0.138401 0.0558,0.364876 0,0.503277 -0.0559,0.138402 -0.10154,0.02516 -0.10154,-0.251638 z m -0.2172,-1.123987 c 0.01,-0.234516 0.0574,-0.282218 0.12162,-0.121626 0.0582,0.145322 0.051,0.318953 -0.0159,0.385847 -0.0669,0.06689 -0.11447,-0.05201 -0.10573,-0.264221 z m -0.18542,-1.090435 c 0,-0.276803 0.0457,-0.39004 0.10154,-0.251639 0.0558,0.138401 0.0558,0.364876 0,0.503278 -0.0558,0.138401 -0.10154,0.02516 -0.10154,-0.251639 z m -0.21721,-1.123987 c 0.01,-0.234516 0.0574,-0.282218 0.12163,-0.121626 0.0582,0.145322 0.051,0.318953 -0.0159,0.385847 -0.0669,0.06689 -0.11448,-0.05201 -0.10574,-0.264221 z m -0.20131,-1.006555 c 0.01,-0.234516 0.0574,-0.282218 0.12163,-0.121626 0.0581,0.145322 0.051,0.318952 -0.0159,0.385846 -0.0669,0.06689 -0.11448,-0.052 -0.10574,-0.26422 z m -0.18541,-1.090435 c 0,-0.276803 0.0457,-0.390041 0.10153,-0.251639 0.0558,0.138401 0.0558,0.364876 0,0.503277 -0.0558,0.138402 -0.10153,0.02516 -0.10153,-0.251638 z m -0.21721,-1.123987 c 0.01,-0.234516 0.0574,-0.282218 0.12163,-0.121626 0.0582,0.145322 0.051,0.318953 -0.0159,0.385847 -0.0669,0.06689 -0.11447,-0.05201 -0.10573,-0.264221 z m -0.16237,-1.493057 c 0,-0.498245 0.0393,-0.702073 0.0872,-0.45295 0.048,0.249122 0.048,0.656777 0,0.9059 -0.048,0.249122 -0.0872,0.04529 -0.0872,-0.45295 z m 9.77167,-9.196517 c 0.14532,-0.05815 0.31895,-0.051 0.38584,0.01589 0.0669,0.06689 -0.052,0.114473 -0.26422,0.105732 -0.23452,-0.0097 -0.28222,-0.05736 -0.12162,-0.121625 z m -93.005729,-1.8118 c 0.145322,-0.05815 0.318952,-0.051 0.385846,0.01589 0.06689,0.06689 -0.05201,0.114474 -0.26422,0.105733 -0.234516,-0.0097 -0.282218,-0.05736 -0.121626,-0.121626 z m 31.071439,-0.869037 c 0,-0.276803 0.0457,-0.39004 0.10154,-0.251639 0.0558,0.138402 0.0558,0.364877 0,0.503278 -0.0559,0.138401 -0.10154,0.02516 -0.10154,-0.251639 z M 60.386131,50.916836 c -0.250405,-0.319291 -0.243285,-0.326411 0.07601,-0.07601 0.193762,0.151958 0.352294,0.310491 0.352294,0.352294 0,0.165686 -0.165314,0.05905 -0.4283,-0.276288 z m -0.763673,-2.986115 c 0.0097,-0.234516 0.05736,-0.282217 0.121625,-0.121625 0.05815,0.145321 0.051,0.318952 -0.01589,0.385846 -0.06689,0.06689 -0.114474,-0.052 -0.105732,-0.264221 z m 86.445002,-5.569606 -3.42007,-3.472616 3.47262,3.420067 c 1.90993,1.881037 3.47261,3.443715 3.47261,3.472616 0,0.143551 -0.34772,-0.193809 -3.52516,-3.420067 z M 104.86381,3.2195758 c 0.14533,-0.058153 0.31896,-0.051001 0.38585,0.015893 0.0669,0.066894 -0.052,0.1144736 -0.26422,0.1057325 -0.23452,-0.00966 -0.28222,-0.057362 -0.12163,-0.1216255 z"
         id="path5" /><path
         style="fill:#4183b6"
         d="m 122.81825,191.6836 c 1.93524,-1.93761 3.56392,-3.52294 3.61928,-3.52294 0.0554,0 -1.48273,1.58533 -3.41797,3.52294 -1.93525,1.93762 -3.56393,3.52295 -3.61929,3.52295 -0.0554,0 1.48273,-1.58533 3.41798,-3.52295 z m -36.238435,-1.25819 -3.117886,-3.17065 3.17065,3.11789 c 2.945558,2.89654 3.26173,3.22341 3.117886,3.22341 -0.02902,0 -1.455813,-1.42679 -3.17065,-3.17065 z m 62.398035,-31.80715 -0.69375,-0.75492 0.75492,0.69376 c 0.70266,0.64572 0.84747,0.81608 0.69375,0.81608 -0.0336,0 -0.37335,-0.33972 -0.75492,-0.75492 z m -38.26395,-2.61704 c -0.2504,-0.31929 -0.24328,-0.32641 0.076,-0.076 0.19376,0.15196 0.35229,0.31049 0.35229,0.35229 0,0.16569 -0.16531,0.059 -0.4283,-0.27628 z m 49.6182,-6.08647 c -1.46839,-0.73376 -3.26598,-2.33359 -5.13101,-4.56651 -1.60636,-1.92323 -2.50378,-2.48257 -3.98309,-2.48257 -0.55424,0 -6.84945,1.08708 -13.98935,2.41573 -7.13989,1.32865 -13.3425,2.41573 -13.78357,2.41573 -2.11539,0 -3.71864,-1.61588 -3.69048,-3.71954 0.007,-0.5562 1.10747,-6.87786 2.44449,-14.04814 1.33703,-7.17028 2.43096,-13.34715 2.43096,-13.72638 0,-1.2167 -0.38172,-1.77332 -2.90591,-4.23741 -3.40288,-3.32186 -5.34785,-6.00506 -5.34785,-7.37767 0,-0.57781 0.44359,-1.09998 3.87524,-4.56177 2.13138,-2.150093 4.17428,-4.038273 4.53978,-4.195953 0.53705,-0.231693 0.90393,-0.24411 1.91245,-0.06473 0.68636,0.122081 6.84183,1.257603 13.67884,2.523383 6.837,1.26578 12.77065,2.29943 13.18588,2.297 1.69849,-0.01 3.42439,-1.408663 3.85671,-3.125583 0.19594,-0.778145 -0.0393,-2.245445 -2.29613,-14.319117 -1.38294,-7.398673 -2.51496,-13.785947 -2.5156,-14.193943 -6.5e-4,-0.407996 0.0957,-0.996551 0.21406,-1.307901 0.28171,-0.740962 6.08048,-6.593182 7.17485,-7.240982 0.93934,-0.556037 2.50735,-0.67689 3.58137,-0.276033 0.88601,0.330685 42.70783,42.141029 43.19753,43.185669 0.49037,1.04606 0.48383,2.58402 -0.0157,3.68461 -0.2957,0.65157 -5.6377,6.09002 -21.55369,21.94291 -11.63831,11.59216 -21.40166,21.1858 -21.69633,21.31921 -0.89622,0.40574 -1.90718,0.29776 -3.18349,-0.34002 z M 110.13565,90.424134 c 0.26004,-0.276803 0.5181,-0.503278 0.57346,-0.503278 0.0554,0 -0.11211,0.226475 -0.37215,0.503278 -0.26004,0.276803 -0.5181,0.503278 -0.57346,0.503278 -0.0554,0 0.11211,-0.226475 0.37215,-0.503278 z M 147.6113,86.90119 c 0,-0.276802 0.0457,-0.39004 0.10154,-0.251639 0.0558,0.138402 0.0558,0.364877 0,0.503278 -0.0558,0.138401 -0.10154,0.02516 -0.10154,-0.251639 z M 68.627818,57.976188 c 0.145321,-0.05815 0.318952,-0.051 0.385846,0.01589 0.06689,0.06689 -0.05201,0.114474 -0.264221,0.105733 -0.234516,-0.0097 -0.282218,-0.05736 -0.121625,-0.121626 z m -4.997636,-3.838375 -2.916406,-2.969339 2.969338,2.916407 c 1.633136,1.604024 2.969339,2.940226 2.969339,2.969338 0,0.144072 -0.313009,-0.157972 -3.022271,-2.916406 z m 36.657118,2.247974 c 0.01,-0.234516 0.0574,-0.282218 0.12162,-0.121626 0.0582,0.145321 0.051,0.318952 -0.0159,0.385846 -0.0669,0.06689 -0.11447,-0.05201 -0.10573,-0.26422 z M 59.622458,48.534655 c 0.0097,-0.234516 0.05736,-0.282218 0.121625,-0.121626 0.05815,0.145322 0.051,0.318952 -0.01589,0.385846 -0.06689,0.06689 -0.114474,-0.05201 -0.105732,-0.26422 z M 107.69424,4.2126663 c -0.25041,-0.3192905 -0.24329,-0.326411 0.076,-0.076006 0.19377,0.1519585 0.3523,0.310491 0.3523,0.3522944 0,0.1656858 -0.16532,0.059045 -0.4283,-0.2762884 z"
         id="path4" /><path
         style="fill:#3982b6"
         d="m 102.66146,206.32899 c -0.25041,-0.3193 -0.24328,-0.32642 0.076,-0.076 0.19376,0.15196 0.35229,0.31049 0.35229,0.35229 0,0.16569 -0.16531,0.0591 -0.4283,-0.27628 z m 5.8637,-0.30337 c 0,-0.0284 2.46858,-2.49703 5.48573,-5.48573 l 5.48572,-5.434 -5.434,5.48573 c -5.04974,5.09781 -5.53745,5.57641 -5.53745,5.434 z m -36.538626,-30.19526 -11.47407,-11.52506 11.52506,11.47407 c 10.713078,10.66568 11.615428,11.57605 11.47407,11.57605 -0.02804,0 -5.214321,-5.18628 -11.52506,-11.52506 z m -8.857025,-18.6716 c 0.545281,-0.55361 1.036715,-1.00656 1.092075,-1.00656 0.05536,0 -0.345483,0.45295 -0.890764,1.00656 -0.545281,0.5536 -1.036715,1.00655 -1.092076,1.00655 -0.05536,0 0.345484,-0.45295 0.890765,-1.00655 z m 50.683901,0.46442 c 0.19587,-0.051 0.46764,-0.0477 0.60393,0.007 0.13629,0.0551 -0.024,0.0969 -0.35613,0.0928 -0.33216,-0.004 -0.44367,-0.0492 -0.2478,-0.10026 z m -47.563579,-3.18212 c 0.260042,-0.27681 0.518099,-0.50328 0.57346,-0.50328 0.05536,0 -0.112107,0.22647 -0.372149,0.50328 -0.260043,0.2768 -0.5181,0.50327 -0.573461,0.50327 -0.05536,0 0.112107,-0.22647 0.37215,-0.50327 z m 74.938049,-1.84992 c 0.19377,-0.0506 0.51083,-0.0506 0.70459,0 0.19377,0.0506 0.0352,0.0921 -0.35229,0.0921 -0.38753,0 -0.54606,-0.0414 -0.3523,-0.0921 z M 67.674901,151.2033 c 0.0097,-0.23451 0.05736,-0.28222 0.121626,-0.12162 0.05815,0.14532 0.051,0.31895 -0.01589,0.38584 -0.06689,0.0669 -0.114474,-0.052 -0.105733,-0.26422 z m -5.009425,-27.56284 c 0.0041,-0.33216 0.04922,-0.44368 0.100262,-0.24781 0.05104,0.19587 0.04768,0.46764 -0.0075,0.60394 -0.05514,0.13629 -0.0969,-0.024 -0.0928,-0.35613 z m 35.290851,-1.30852 c 0.200403,-0.22144 0.409664,-0.40262 0.465024,-0.40262 0.05536,0 -0.06331,0.18118 -0.263712,0.40262 -0.200403,0.22144 -0.409664,0.40262 -0.465024,0.40262 -0.05536,0 0.06331,-0.18118 0.263712,-0.40262 z m 2.516393,-2.49174 c 0,-0.0418 0.15853,-0.20034 0.35229,-0.35229 0.31929,-0.25041 0.32641,-0.24329 0.076,0.076 -0.26299,0.33534 -0.4283,0.44198 -0.4283,0.27629 z M 111.1422,89.417579 c 0.26005,-0.276803 0.5181,-0.503278 0.57346,-0.503278 0.0554,0 -0.1121,0.226475 -0.37214,0.503278 -0.26005,0.276802 -0.5181,0.503277 -0.57347,0.503277 -0.0554,0 0.11211,-0.226475 0.37215,-0.503277 z m 2.21443,-2.415733 c 0.26004,-0.276803 0.5181,-0.503278 0.57346,-0.503278 0.0554,0 -0.11211,0.226475 -0.37215,0.503278 -0.26005,0.276802 -0.5181,0.503277 -0.57346,0.503277 -0.0554,0 0.1121,-0.226475 0.37215,-0.503277 z m 2.57929,-1.24473 c 0.14533,-0.05815 0.31896,-0.051 0.38585,0.01589 0.0669,0.06689 -0.052,0.114474 -0.26422,0.105733 -0.23452,-0.0097 -0.28222,-0.05736 -0.12163,-0.121626 z M 96.006126,52.943411 c 0.145322,-0.05815 0.318953,-0.051 0.385847,0.01589 0.06689,0.06689 -0.05201,0.114474 -0.264221,0.105733 -0.234516,-0.0097 -0.282218,-0.05736 -0.121626,-0.121626 z M 81.247507,25.09869 C 92.540652,13.805139 101.82579,4.5649607 101.88115,4.5649607 c 0.0554,0 -9.139187,9.2401783 -20.432332,20.5337293 -11.293145,11.293552 -20.578286,20.53373 -20.633647,20.53373 -0.05536,0 9.139191,-9.240178 20.432336,-20.53373 z"
         id="path3" /><path
         style="fill:#116baa"
         d="m 103.69369,206.86869 c -0.7043,-0.31695 -5.617052,-5.11623 -22.076257,-21.56633 -23.157302,-23.1445 -21.926351,-21.7858 -21.424822,-23.64833 0.453535,-1.68431 2.941905,-4.6583 5.592587,-6.68403 0.464139,-0.35471 1.044497,-0.96952 1.289684,-1.36624 0.929266,-1.50358 0.943217,-1.37889 -1.76454,-15.77087 -2.692343,-14.31005 -2.789665,-15.12233 -1.947971,-16.25857 0.563943,-0.76129 1.585779,-1.42096 2.453154,-1.58368 0.526932,-0.0988 4.434613,0.54118 14.119607,2.31261 7.365072,1.34711 13.778957,2.4482 14.253078,2.44686 1.376824,-0.004 2.072176,-0.43502 3.878493,-2.40472 1.879906,-2.04995 3.852307,-3.75382 5.809187,-5.0183 1.38074,-0.89219 1.93776,-1.00068 2.79714,-0.54479 0.65152,0.34563 7.55174,7.27377 7.86997,7.90181 0.12254,0.24184 0.2228,0.77034 0.2228,1.17444 0,0.4041 -1.08708,6.66065 -2.41573,13.90345 -1.32865,7.24279 -2.41573,13.4888 -2.41573,13.88002 0,1.35945 0.99921,2.98769 2.21442,3.60846 1.21738,0.62187 1.69935,0.55855 15.24446,-2.00284 7.32284,-1.38475 13.75323,-2.51773 14.28975,-2.51773 0.56674,0 1.18405,0.13815 1.47323,0.3297 1.00391,0.66496 6.67843,6.43792 7.0713,7.19396 0.5122,0.98568 0.547,2.61781 0.0759,3.55827 -0.52854,1.05505 -42.09564,42.62247 -43.08671,43.08706 -1.04721,0.49089 -2.3906,0.47938 -3.52295,-0.0302 z M 99.665431,89.971184 95.943217,86.196601 99.7178,89.918816 c 3.50697,3.458315 3.86552,3.826951 3.72221,3.826951 -0.0288,0 -1.72736,-1.698562 -3.774579,-3.774583 z m 16.874429,-4.214068 c 0.14532,-0.05815 0.31895,-0.051 0.38584,0.01589 0.0669,0.06689 -0.052,0.114474 -0.26422,0.105733 -0.23451,-0.0097 -0.28221,-0.05736 -0.12162,-0.121626 z M 95.471725,84.686768 c 0,-0.276802 0.04569,-0.39004 0.101538,-0.251638 0.05585,0.138401 0.05585,0.364876 0,0.503277 -0.05585,0.138402 -0.101538,0.02516 -0.101538,-0.251639 z M 142.57852,59.321573 c 0,-0.276803 0.0457,-0.39004 0.10154,-0.251639 0.0558,0.138402 0.0558,0.364876 0,0.503278 -0.0558,0.138401 -0.10154,0.02516 -0.10154,-0.251639 z m 1.37739,-3.095672 c 0,-0.0418 0.15853,-0.200336 0.3523,-0.352295 0.31929,-0.250404 0.32641,-0.243284 0.076,0.07601 -0.26298,0.335333 -0.4283,0.441974 -0.4283,0.276288 z m 1.00656,-0.805244 c 0,-0.0418 0.15853,-0.200336 0.35229,-0.352295 0.31929,-0.250405 0.32641,-0.243284 0.076,0.07601 -0.26299,0.335334 -0.4283,0.441974 -0.4283,0.276289 z m -45.817403,-1.3835 -0.383495,-0.45295 0.45295,0.383495 c 0.425661,0.360391 0.544595,0.522405 0.383495,0.522405 -0.0382,0 -0.242028,-0.203827 -0.45295,-0.45295 z m 47.427893,-0.05033 c 0.26004,-0.276803 0.5181,-0.503278 0.57346,-0.503278 0.0554,0 -0.11211,0.226475 -0.37215,0.503278 -0.26005,0.276802 -0.5181,0.503277 -0.57346,0.503277 -0.0554,0 0.1121,-0.226475 0.37215,-0.503277 z m 1.10721,-1.107211 c 0.2004,-0.221443 0.40966,-0.402623 0.46502,-0.402623 0.0554,0 -0.0633,0.18118 -0.26371,0.402623 -0.2004,0.221442 -0.40966,0.402622 -0.46503,0.402622 -0.0554,0 0.0633,-0.18118 0.26372,-0.402622 z"
         id="path2" /><path
         style="fill:#004e8c"
         d="m 99.723257,89.865071 c -4.064816,-4.064815 -4.082007,-4.085716 -4.082007,-4.963016 0,-0.484556 1.08708,-6.76028 2.415733,-13.946055 1.328653,-7.185774 2.415737,-13.498921 2.415737,-14.029217 0,-1.938206 -1.597004,-3.783524 -3.449893,-3.986312 -0.607929,-0.06653 -5.085628,0.691099 -14.545812,2.461171 C 69.905427,57.75388 68.743198,57.93934 67.982616,57.714545 67.328058,57.521086 66.47066,56.792523 63.868532,54.218658 62.060573,52.430336 60.447756,50.713171 60.284494,50.402735 59.851283,49.579003 59.719463,48.02521 60.005965,47.119639 60.208589,46.479187 64.062254,42.520641 81.218716,25.329563 98.126504,8.3876591 102.37866,4.2291174 103.19042,3.841572 c 1.24188,-0.5928951 2.50654,-0.6159643 3.72425,-0.067936 0.70399,0.3168303 5.56211,5.0607192 21.79675,21.284225 14.15044,14.140738 21.0192,21.140606 21.28865,21.695001 0.54525,1.121867 0.50045,1.830795 -0.20489,3.242314 -0.72325,1.447338 -2.05306,3.013878 -3.82296,4.503516 -2.37438,1.998385 -2.76594,2.455852 -3.10738,3.630355 l -0.3211,1.104535 2.51789,13.527712 c 1.38483,7.440241 2.51788,13.863327 2.51788,14.273523 0,1.712051 -1.47155,3.343744 -3.25603,3.610364 -0.40134,0.05996 -6.11087,-0.911798 -14.25331,-2.425911 -7.47107,-1.38927 -13.72178,-2.525441 -13.89046,-2.524824 -1.23427,0.0045 -1.92944,0.486492 -4.61724,3.201188 -3.24558,3.278055 -5.69074,5.053667 -6.95742,5.052304 -0.77133,-8.3e-4 -0.94504,-0.146117 -4.881793,-4.082867 z"
         id="path1" /></g></g></svg>
